HIERARCHY
ROOT Hips
{
    OFFSET   0.000000   0.000000   0.000000
    CHANNELS 6 Xposition Yposition Zposition Zrotation Xrotation Yrotation
    JOINT Chest
    {
        OFFSET   0.000000   8.007230   0.000000
        CHANNELS 3 Zrotation Xrotation Yrotation
        JOINT Chest2
        {
            OFFSET   0.000000  22.077100   0.000000
            CHANNELS 3 Zrotation Xrotation Yrotation
            JOINT Neck
            {
                OFFSET   0.000000  23.254700   0.000000
                CHANNELS 3 Zrotation Xrotation Yrotation
                JOINT Head
                {
                    OFFSET   0.000010  14.370000   1.956610
                    CHANNELS 3 Zrotation Xrotation Yrotation
                    End Site
                    {
                        OFFSET   0.000000  19.566000   0.000000
                    }
                }
            }
            JOINT LeftCollar
            {
                OFFSET   3.911900  19.017000  -0.467063
                CHANNELS 3 Zrotation Xrotation Yrotation
                JOINT LeftShoulder
                {
                    OFFSET  10.383700   0.000000   0.000000
                    CHANNELS 3 Zrotation Xrotation Yrotation
                    JOINT LeftElbow
                    {
                        OFFSET  26.662100   0.001671   0.000522
                        CHANNELS 3 Zrotation Xrotation Yrotation
                        JOINT LeftWrist
                        {
                            OFFSET  28.869000   0.000037  -0.000114
                            CHANNELS 3 Zrotation Xrotation Yrotation
                            JOINT LeftFinger0
                            {
                                OFFSET   2.044650  -2.323450   3.252850
                                CHANNELS 3 Zrotation Xrotation Yrotation
                                JOINT LeftFinger01
                                {
                                    OFFSET   3.088140   0.000000   0.000000
                                    CHANNELS 3 Zrotation Xrotation Yrotation
                                    JOINT LeftFinger02
                                    {
                                        OFFSET   2.639460   0.000000   0.000000
                                        CHANNELS 3 Zrotation Xrotation Yrotation
                                        End Site
                                        {
                                            OFFSET   2.582190   0.000000   0.000000
                                        }
                                    }
                                }
                            }
                            JOINT LeftFinger1
                            {
                                OFFSET   8.364480   0.000000   3.252850
                                CHANNELS 3 Zrotation Xrotation Yrotation
                                JOINT LeftFinger11
                                {
                                    OFFSET   4.646930   0.000000   0.000000
                                    CHANNELS 3 Zrotation Xrotation Yrotation
                                    JOINT LeftFinger12
                                    {
                                        OFFSET   2.323470   0.000000   0.000000
                                        CHANNELS 3 Zrotation Xrotation Yrotation
                                        End Site
                                        {
                                            OFFSET   2.273050   0.000000   0.000000
                                        }
                                    }
                                }
                            }
                            JOINT LeftFinger2
                            {
                                OFFSET   8.364490   0.000016   1.078090
                                CHANNELS 3 Zrotation Xrotation Yrotation
                                JOINT LeftFinger21
                                {
                                    OFFSET   5.111620   0.000000   0.000000
                                    CHANNELS 3 Zrotation Xrotation Yrotation
                                    JOINT LeftFinger22
                                    {
                                        OFFSET   2.788150   0.000013   0.000000
                                        CHANNELS 3 Zrotation Xrotation Yrotation
                                        End Site
                                        {
                                            OFFSET   2.727660   0.000000   0.000000
                                        }
                                    }
                                }
                            }
                            JOINT LeftFinger3
                            {
                                OFFSET   7.899780   0.000016  -1.078090
                                CHANNELS 3 Zrotation Xrotation Yrotation
                                JOINT LeftFinger31
                                {
                                    OFFSET   4.646930   0.000000   0.000000
                                    CHANNELS 3 Zrotation Xrotation Yrotation
                                    JOINT LeftFinger32
                                    {
                                        OFFSET   2.323470   0.000000   0.000000
                                        CHANNELS 3 Zrotation Xrotation Yrotation
                                        End Site
                                        {
                                            OFFSET   2.273050   0.000000   0.000000
                                        }
                                    }
                                }
                            }
                            JOINT LeftFinger4
                            {
                                OFFSET   7.435080   0.000000  -3.252850
                                CHANNELS 3 Zrotation Xrotation Yrotation
                                JOINT LeftFinger41
                                {
                                    OFFSET   3.717550   0.000000   0.000000
                                    CHANNELS 3 Zrotation Xrotation Yrotation
                                    JOINT LeftFinger42
                                    {
                                        OFFSET   1.858760   0.000000   0.000000
                                        CHANNELS 3 Zrotation Xrotation Yrotation
                                        End Site
                                        {
                                            OFFSET   1.818440   0.000000   0.000000
                                        }
                                    }
                                }
                            }
                        }
                    }
                }
            }
            JOINT RightCollar
            {
                OFFSET  -3.911900  19.017000  -0.467064
                CHANNELS 3 Zrotation Xrotation Yrotation
                JOINT RightShoulder
                {
                    OFFSET -10.383700   0.000000   0.000000
                    CHANNELS 3 Zrotation Xrotation Yrotation
                    JOINT RightElbow
                    {
                        OFFSET -26.662100   0.001633   0.000260
                        CHANNELS 3 Zrotation Xrotation Yrotation
                        JOINT RightWrist
                        {
                            OFFSET -28.869000  -0.000045  -0.000080
                            CHANNELS 3 Zrotation Xrotation Yrotation
                            JOINT RightFinger0
                            {
                                OFFSET  -2.044660  -2.323490   3.252850
                                CHANNELS 3 Zrotation Xrotation Yrotation
                                JOINT RightFinger01
                                {
                                    OFFSET  -3.088140   0.000000   0.000000
                                    CHANNELS 3 Zrotation Xrotation Yrotation
                                    JOINT RightFinger02
                                    {
                                        OFFSET  -2.639450   0.000000   0.000000
                                        CHANNELS 3 Zrotation Xrotation Yrotation
                                        End Site
                                        {
                                            OFFSET  -2.582190   0.000000   0.000000
                                        }
                                    }
                                }
                            }
                            JOINT RightFinger1
                            {
                                OFFSET  -8.364480   0.000000   3.252850
                                CHANNELS 3 Zrotation Xrotation Yrotation
                                JOINT RightFinger11
                                {
                                    OFFSET  -4.646920   0.000000   0.000000
                                    CHANNELS 3 Zrotation Xrotation Yrotation
                                    JOINT RightFinger12
                                    {
                                        OFFSET  -2.323470   0.000000   0.000000
                                        CHANNELS 3 Zrotation Xrotation Yrotation
                                        End Site
                                        {
                                            OFFSET  -2.273050   0.000000   0.000000
                                        }
                                    }
                                }
                            }
                            JOINT RightFinger2
                            {
                                OFFSET  -8.364480   0.000000   1.078090
                                CHANNELS 3 Zrotation Xrotation Yrotation
                                JOINT RightFinger21
                                {
                                    OFFSET  -5.111610   0.000000   0.000000
                                    CHANNELS 3 Zrotation Xrotation Yrotation
                                    JOINT RightFinger22
                                    {
                                        OFFSET  -2.788160   0.000000   0.000000
                                        CHANNELS 3 Zrotation Xrotation Yrotation
                                        End Site
                                        {
                                            OFFSET  -2.727660   0.000000   0.000000
                                        }
                                    }
                                }
                            }
                            JOINT RightFinger3
                            {
                                OFFSET  -7.899780   0.000000  -1.078090
                                CHANNELS 3 Zrotation Xrotation Yrotation
                                JOINT RightFinger31
                                {
                                    OFFSET  -4.646930   0.000000   0.000000
                                    CHANNELS 3 Zrotation Xrotation Yrotation
                                    JOINT RightFinger32
                                    {
                                        OFFSET  -2.323470   0.000000   0.000000
                                        CHANNELS 3 Zrotation Xrotation Yrotation
                                        End Site
                                        {
                                            OFFSET  -2.273050   0.000000   0.000000
                                        }
                                    }
                                }
                            }
                            JOINT RightFinger4
                            {
                                OFFSET  -7.435090   0.000000  -3.252850
                                CHANNELS 3 Zrotation Xrotation Yrotation
                                JOINT RightFinger41
                                {
                                    OFFSET  -3.717550   0.000000   0.000000
                                    CHANNELS 3 Zrotation Xrotation Yrotation
                                    JOINT RightFinger42
                                    {
                                        OFFSET  -1.858760   0.000000   0.000000
                                        CHANNELS 3 Zrotation Xrotation Yrotation
                                        End Site
                                        {
                                            OFFSET  -1.818440   0.000000   0.000000
                                        }
                                    }
                                }
                            }
                        }
                    }
                }
            }
        }
    }
    JOINT LeftHip
    {
        OFFSET   9.782990   0.000000   0.000000
        CHANNELS 3 Zrotation Xrotation Yrotation
        JOINT LeftKnee
        {
            OFFSET  -0.000063 -41.789100   0.001657
            CHANNELS 3 Zrotation Xrotation Yrotation
            JOINT LeftAnkle
            {
                OFFSET   0.000078 -41.133200  -0.000113
                CHANNELS 3 Zrotation Xrotation Yrotation
                JOINT LeftToe
                {
                    OFFSET   0.000000  -6.358970  14.674500
                    CHANNELS 3 Zrotation Xrotation Yrotation
                    End Site
                    {
                        OFFSET   0.000000   0.000000   3.913200
                    }
                }
            }
        }
    }
    JOINT RightHip
    {
        OFFSET  -9.782990   0.000000   0.000000
        CHANNELS 3 Zrotation Xrotation Yrotation
        JOINT RightKnee
        {
            OFFSET   0.000053 -41.789200   0.000277
            CHANNELS 3 Zrotation Xrotation Yrotation
            JOINT RightAnkle
            {
                OFFSET   0.000030 -41.133200  -0.000150
                CHANNELS 3 Zrotation Xrotation Yrotation
                JOINT RightToe
                {
                    OFFSET   0.000000  -6.358960  14.674500
                    CHANNELS 3 Zrotation Xrotation Yrotation
                    End Site
                    {
                        OFFSET   0.000000   0.000000   3.913200
                    }
                }
            }
        }
    }
}
MOTION
Frames: 5
Frame Time:   0.016667
 -1.292040  89.520100   0.008094  -2.822290 -12.039500  -1.448070   1.211860   5.380830  -0.495067   2.487160  10.749700  -1.112320   0.901108   2.230160  -0.031788   1.486020   4.519400   2.179560  -7.893470  -1.542410  -0.512923 -65.141100  16.810400 -32.386500  31.855100  -6.364620 -74.441300  56.264600  11.325400  -1.195250  26.920200  61.452300 -70.412200 -83.125100  -0.001358  -0.011396 -48.701300   0.006022  -0.007008  -2.204530  -0.036440   1.143980  -1.762770  -0.002405   0.000149  -1.233930  -0.001684  -0.001165 -89.051600  -1.322720   0.020616 -102.398000  -0.074850  -0.095411 -76.798700   0.057526  -0.070643 -89.147600  -4.996540   0.068997 -90.771700  -0.076614  -0.050952 -68.078800   0.014111  -0.067592 -76.313000  -9.703590   2.312110 -110.000000  -0.007379  -0.005297 -76.436100  -0.021470   0.040336  11.924500   2.129400  12.136000  44.995500   8.515830  34.257300 -44.388200  -6.791940  57.034000 -53.818000  16.480300  11.199800 -24.730400  54.532600  67.339400  80.499300   0.065604  -0.391615  46.952700   0.064097   0.000000  -6.313820   0.119012  -1.083140   0.000000  -0.002076   0.008336   0.000000  -0.001456   0.007376  88.986900  -0.776089  -0.009602 110.191000   0.002820  -0.001928  80.000000   0.003576  -0.003167  88.995900  -4.999230  -0.091150 110.000000   0.004376  -0.002262  80.000000   0.000623   0.002100  88.988100  -9.998450  -0.176307 110.000000   0.000000  -0.001937  80.000000  -0.004252  -0.001262   2.532890  14.131600   2.816070   1.139290   0.082557   5.588320  -1.116950  -3.202090   2.160360   0.000000   0.000000  -0.000000   5.527710  12.219600  -0.352317  -2.078150   3.900180  -6.338080  -1.285760  -5.527770  -1.943350   0.000000   0.000000   0.000000
 -1.292830  89.520100   0.035656  -2.828560 -12.003800  -1.481990   1.213960   5.380990  -0.482177   2.490150  10.750300  -1.086580   0.937796   2.247630  -0.032417   1.541320   4.554390   3.688700  -7.949090  -1.586060  -0.540746 -65.428100  17.480700 -32.426000  30.549900  -8.177180 -74.184600  55.634600   8.585270   2.289030  28.317100  61.757300 -71.864200 -81.472300  -0.007177  -0.012757 -47.600500   0.002724  -0.011990  -2.203990  -0.009191   0.309895  -1.795630  -0.003688  -0.000600  -1.256940  -0.002578  -0.001522 -89.023000  -0.587866   0.009622 -104.083000  -0.028273  -0.036916 -78.062500   0.022825  -0.026570 -89.071900  -4.996260   0.078212 -91.883900  -0.029198  -0.019812 -68.912900   0.006181  -0.025838 -76.330100  -9.715660   2.347160 -110.000000  -0.007261  -0.005133 -76.455500   0.000825  -0.003136  12.005800   2.035450  12.138200  45.639600   8.836670  34.380200 -44.081100  -7.817120  56.672600 -52.979500  15.752000   8.383220 -26.300100  54.814300  69.004900  77.794900   0.044557  -0.215676  45.151600   0.043730  -0.000128  -6.142910   0.204079  -1.931440   0.000000  -0.001950   0.008425   0.000000  -0.001366   0.007470  88.992500  -1.627210  -0.025903 110.096000   0.003149  -0.002016  80.000000   0.003429  -0.003304  88.995900  -4.999230  -0.091200 110.000000   0.004342  -0.002098  80.000000   0.000724   0.002210  88.988200  -9.998450  -0.176306 110.000000   0.000000  -0.001907  80.000000  -0.004167  -0.001265   2.532540  14.148400   2.816330   1.132620   0.041995   5.602240  -1.112940  -3.212650   2.184420   0.000000   0.000000  -0.000000   5.518840  12.220800  -0.356191  -2.071510   3.866250  -6.312210  -1.285710  -5.529810  -1.928750  -0.000000   0.000000  -0.000000
 -1.295530  89.520100   0.064945  -2.833690 -11.967600  -1.510970   1.214580   5.381150  -0.470325   2.490270  10.750800  -1.062770   0.956498   2.262110  -0.033121   1.577890   4.583250   5.020990  -7.987540  -1.633750  -0.563543 -65.738900  17.937300 -32.434400  29.537100  -9.778760 -73.963200  55.381400   6.635740   4.678550  30.849500  62.244500 -74.524400 -79.087000  -0.015159  -0.012952 -46.012000  -0.001165  -0.013761  -2.195140   0.027484  -0.714665  -1.800330  -0.004974  -0.001393  -1.260220  -0.003469  -0.001873 -88.994200   0.146972  -0.002307 -105.282000   0.000868   0.002830 -78.961700  -0.001705   0.001284 -88.996200  -4.996220   0.087482 -92.688500   0.002532   0.001624 -69.516300  -0.000246   0.002253 -76.491400  -9.739990   2.359970 -110.000000  -0.007136  -0.004964 -76.591200   0.016608  -0.033249  12.071500   1.951440  12.142700  46.251800   9.086310  34.483600 -43.856100  -8.765910  56.314500 -52.322100  15.119600   6.133940 -27.743800  54.933100  70.488900  75.146000   0.015278  -0.057198  43.387400   0.015175  -0.000267  -5.897140   0.252248  -2.429940   0.000000  -0.001824   0.008517   0.000000  -0.001274   0.007565  88.998000  -2.441780  -0.041937 110.000000   0.003250  -0.002033  80.000000   0.003284  -0.003417  88.995900  -4.999230  -0.091251 110.000000   0.004261  -0.001928  80.000000   0.000823   0.002323  88.988200  -9.998450  -0.176304 110.000000   0.000000  -0.001877  80.000000  -0.004082  -0.001269   2.532300  14.162200   2.816630   1.126660   0.001434   5.618090  -1.110070  -3.220930   2.200180   0.000000   0.000000  -0.000000   5.509020  12.222000  -0.360064  -2.065760   3.833740  -6.290820  -1.285150  -5.532220  -1.915180   0.000000   0.000000   0.000000
 -1.300730  89.523800   0.096976  -2.836680 -11.936100  -1.529380   1.215660   5.383330  -0.459771   2.491490  10.755500  -1.041690   0.956737   2.272290  -0.033833   1.598540   4.605230   6.163380  -8.018500  -1.685820  -0.583444 -66.245000  17.946800 -32.345400  28.870900 -10.594500 -73.806800  55.374800   5.355850   5.978670  32.996000  62.574200 -76.820300 -76.963900  -0.084766   0.053454 -44.597900  -0.065641  -0.007435  -2.133120   0.036400  -1.040380  -1.754170  -0.006160  -0.002167  -1.227900  -0.004273  -0.002175 -88.994400   0.073486  -0.003253 -106.005000  -0.002741  -0.002947 -79.503900   0.003149  -0.003171 -88.996200  -4.996230   0.087536 -93.050100   0.002087   0.001217 -69.787600  -0.000731   0.001833 -77.368300  -9.769120   2.202920 -110.000000  -0.006983  -0.004786 -77.642000   0.007430  -0.016202  12.123200   1.867360  12.146900  46.817900   9.081780  34.506900 -43.532800  -9.523780  56.159600 -51.625700  14.539500   4.343590 -28.941400  55.115000  71.765700  73.255200   0.004927  -0.009785  42.128100   0.004357  -0.000385  -5.757430   0.283238  -2.829340   0.000000  -0.001689   0.008607   0.000000  -0.001175   0.007660  88.997500  -2.929870  -0.051811 110.000000   0.003425  -0.002041  80.000000   0.003139  -0.003482  88.995900  -4.999230  -0.091298 110.000000   0.004145  -0.001748  80.000000   0.000910   0.002435  88.988300  -9.998450  -0.176297 110.000000   0.000000  -0.001842  80.000000  -0.004002  -0.001286   2.532770  14.159000   2.816660   1.122350   0.001749   5.636750  -1.108870  -3.243340   2.204470  -0.000000   0.000000   0.000000   5.498340  12.229200  -0.355462  -2.062040   3.800590  -6.282780  -1.280230  -5.535110  -1.906590   0.000000   0.000000  -0.000000
 -1.307230  89.530000   0.130503  -2.838500 -11.909800  -1.541710   1.216660   5.387560  -0.450600   2.492680  10.764100  -1.023420   0.956795   2.276650  -0.034485   1.578340   4.612250   7.061780  -8.032700  -1.737940  -0.597985 -66.592000  17.915200 -32.250500  28.643200 -10.831800 -73.697400  55.473700   4.884000   6.344300  35.857000  62.971000 -79.926100 -74.728200  -0.144022   0.119860 -43.109000  -0.124729  -0.001110  -2.051740   0.051555  -1.573540  -1.682650  -0.007131  -0.002840  -1.177830  -0.004928  -0.002412 -88.994900   0.000000  -0.003569 -106.247000  -0.006351  -0.008854 -79.685300   0.008002  -0.007625 -88.996200  -4.996250   0.087556 -93.234900   0.000838   0.000175 -69.926200  -0.000861   0.000682 -78.623400  -9.802810   1.954520 -110.000000  -0.006822  -0.004608 -79.000000  -0.001748   0.001869  12.163800   1.795490  12.150700  47.268400   9.067000  34.512000 -43.253600 -10.093300  56.080000 -50.941700  14.251700   3.012110 -30.030900  55.330600  72.948700  71.733600  -0.000241  -0.003011  41.114600  -0.001409  -0.000514  -5.694970   0.300976  -2.990350   0.000000  -0.001550   0.008695   0.000000  -0.001076   0.007753  88.997200  -3.124420  -0.055894 110.000000   0.003564  -0.002042  79.999900   0.002993  -0.003528  88.995900  -4.999220  -0.091344 110.000000   0.004000  -0.001560  80.000000   0.000995   0.002546  88.988300  -9.998460  -0.176292 110.000000   0.000000  -0.001805  80.000000  -0.003923  -0.001304   2.533250  14.154000   2.816880   1.119220   0.003952   5.647950  -1.107640  -3.271030   2.205720   0.000000   0.000000   0.000000   5.484550  12.239800  -0.345956  -2.056840   3.771450  -6.279090  -1.272730  -5.539720  -1.903040  -0.000000   0.000000   0.000000
